<?xml version="1.0" encoding="utf-8"?>
<svg version="1.1" id="Слой_1" xmlns="http://www.w3.org/2000/svg" xmlns:xlink="http://www.w3.org/1999/xlink" x="0px" y="0px"
	 viewBox="0 0 70 70" style="enable-background:new 0 0 70 70;" xml:space="preserve">
<style type="text/css">
	.st0{fill:#213674;}
	.st1{fill:#F9DC03;}
</style>
<g>
	<g>
		<path class="st0" d="M22,70c-1.5-3.5-5.3-1.5-7.7-3.2c-2.2-1.6-6-1.4-4.5-6c0.3-0.8-0.9-2.4-2.5-2.6c-0.4-0.3-0.7-0.6-1.1-1
			c1-0.6,0.2-3.5,2.8-2.3c2.9,1.4,0.3-2.1,0.9-2.1c2.9,0,2.6,2.2,3.5,3.2c2.6,2.9,5.4,3.3,7.5,0.2c2.2-3.2,4.8-6.2,5.5-10.5
			c0.7-4.1,1.4-8.1,2.5-12.2c1.8-6.6-5-13.2-11.7-11.9c-1.6,0.3-2.8,1.3-1.8,3.2c1.2,2.1-0.3,2.9-1.6,4.1C11.6,27.6,9.7,26,7.9,24
			c0.5-0.7,0.8-1.9,1.3-2c7.9-0.9,8.4-9,13-12.9c3.1-2.6,3.5-7.7,8.5-8.5c2.5,5,8.8,1.4,12.4,5.5c-2.7,12.9-8.8,26.8,3.6,38.7
			c0.3,5.6-1,6.5-7.8,5c-5.8,0.8-9.3,4.6-12.2,9.2c2.3,1.8,4.2,2.1,6.7,1c3.5-1.6,7.3-2.7,10,1.7c-0.8,1-1.8,1.9-1.9,3.3
			c-3.6,2.2-7.1,3.8-11.6,1.8c-1-0.5-6.3-2.4-6.1,3C23.4,70,22.7,70,22,70z M38.3,9.5C29,2.7,27.5,7.3,22.7,16.7
			C31.1,21.2,31.9,10,38.3,9.5z"/>
		<path class="st1" d="M39.1,50.1c6.8,1.5,8.1,0.6,7.8-5c0-5.2,0-10.5,0-15.6c2.3-0.7,3.6,0.7,5.4,0.8c-0.8,4.8-0.6,9.5-0.1,14.8
			c2.8-3.8,5.3-7.2,7.8-10.6c3.9,1.8-0.2,7.2,4.7,7.8c-2.4,3.8-7.6,5.6-5.6,11.3c0.5,1.6-1.3,2.8-2.6,4c1.1,2.5,4.8,3.6,3.8,7.3
			c-0.4,1.4-0.4,3-1.9,3c-4.8,0.2-9.6,0.2-14.5,0c-1.1,0-1.8-1.4-2-2.6c0.1-1.4,1-2.3,1.9-3.3c3.7-4.5,3.6-5.3-1.4-7.9
			C40.6,53.2,39.1,52.3,39.1,50.1z"/>
	</g>
</g>
</svg>
